<svg xmlns:svg="http://www.w3.org/2000/svg" xmlns="http://www.w3.org/2000/svg" version="1.1" width="1113" height="1113" viewBox="0 0 1113 1113"><circle cx="546.7" cy="558.6" r="493.5" style="fill-opacity:1;fill:#fff"/><circle cx="548.5" cy="560.3" r="461" style="fill-opacity:1;fill:#00f"/><path d="M1508.7 1000.6C1316.6 1000.6 1160.9 1155.2 1159.5 1347.2L1152 2355.6C1150.6 2547.6 1304 2702.1 1496.1 2702.1L1528.9 2702.1 1063.9 3261.3 1448.4 3261.3 1913.4 2702.1 2225.9 2702.1 2690.9 3261.3 3075.4 3261.3 2608.9 2700.4C2784.4 2682.9 2921.5 2535.7 2922.9 2355.6L2930.3 1347.2C2931.8 1155.2 2778.3 1000.6 2586.3 1000.6L1508.7 1000.6z" transform="scale(0.26458333)" style="fill-opacity:1;fill-rule:evenodd;fill:#fffffd;opacity:1"/><circle r="23.3" cy="223.8" cx="501.3" style="fill-opacity:1;fill-rule:evenodd;fill:#fff;opacity:1"/><circle cx="585.6" cy="224.1" r="23.3" style="fill-opacity:1;fill-rule:evenodd;fill:#fff;opacity:1"/><circle cx="407.7" cy="648.6" r="40.9" style="fill-opacity:1;fill:#00f"/><circle cx="659.7" cy="651.1" r="40.9" style="fill-opacity:1;fill:#00f"/><rect width="366.8" height="243.4" x="358.5" y="314.3" ry="38.4" style="fill-opacity:1;fill:#00f"/></svg>
