<svg xmlns:svg="http://www.w3.org/2000/svg" xmlns="http://www.w3.org/2000/svg" version="1.1" width="584" height="1507" viewBox="0 0 584 1507"><path d="M294.6 27.5A259.1 259.1 0 0 0 35.6 286.6 259.1 259.1 0 0 0 151.8 502.5V716.1H427.3V508.8A259.1 259.1 0 0 0 553.7 286.6 259.1 259.1 0 0 0 294.6 27.5Z" style="fill-opacity:1;fill-rule:evenodd;fill:#fff;opacity:1"/><path d="M293.8 85.8A217.3 217.3 0 0 0 76.5 303.1 217.3 217.3 0 0 0 171.6 482.7v185.3H406.4V488.7A217.3 217.3 0 0 0 511.1 303.1 217.3 217.3 0 0 0 293.8 85.8Z" style="fill-opacity:1;fill-rule:evenodd;fill:#5c5c5c;opacity:1"/></svg>
