<svg xmlns:svg="http://www.w3.org/2000/svg" xmlns="http://www.w3.org/2000/svg" version="1.1" width="584" height="1507" viewBox="0 0 584 1507"><path d="M297.2 34.7A259.1 259.1 0 0 0 38.1 293.8 259.1 259.1 0 0 0 154.4 509.7v213.6h275.4V516A259.1 259.1 0 0 0 556.2 293.8 259.1 259.1 0 0 0 297.2 34.7Z" style="fill-opacity:1;fill-rule:evenodd;fill:#fff;opacity:1"/><path d="M296.3 93A217.3 217.3 0 0 0 79 310.3 217.3 217.3 0 0 0 174.1 489.9v185.3h234.8V495.9A217.3 217.3 0 0 0 513.6 310.3 217.3 217.3 0 0 0 296.3 93Z" style="fill-opacity:1;fill-rule:evenodd;fill:#5c5c5c;opacity:1"/></svg>
