<svg xmlns:svg="http://www.w3.org/2000/svg" xmlns="http://www.w3.org/2000/svg" version="1.1" width="584" height="1507" viewBox="0 0 584 1507"><path d="M292.4 30.4A259.1 259.1 0 0 0 33.4 289.4 259.1 259.1 0 0 0 149.6 505.4v213.6h275.4V511.6A259.1 259.1 0 0 0 551.5 289.4 259.1 259.1 0 0 0 292.4 30.4Z" style="fill-opacity:1;fill-rule:evenodd;fill:#fff;opacity:1"/><path d="M291.6 88.6A217.3 217.3 0 0 0 74.3 305.9 217.3 217.3 0 0 0 169.3 485.5v185.3H404.1V491.5A217.3 217.3 0 0 0 508.9 305.9 217.3 217.3 0 0 0 291.6 88.6Z" style="fill-opacity:1;fill-rule:evenodd;fill:#5c5c5c;opacity:1"/></svg>
