<svg xmlns:svg="http://www.w3.org/2000/svg" xmlns="http://www.w3.org/2000/svg" version="1.1" width="584" height="1507" viewBox="0 0 584 1507"><path d="M291.4 28.2A259.1 259.1 0 0 0 32.4 287.3 259.1 259.1 0 0 0 148.6 503.3v213.6h275.4V509.5A259.1 259.1 0 0 0 550.5 287.3 259.1 259.1 0 0 0 291.4 28.2Z" style="fill-opacity:1;fill-rule:evenodd;fill:#fff;opacity:1"/><path d="M290.6 86.5A217.3 217.3 0 0 0 73.3 303.8 217.3 217.3 0 0 0 168.4 483.4v185.3H403.2V489.4A217.3 217.3 0 0 0 507.9 303.8 217.3 217.3 0 0 0 290.6 86.5Z" style="fill-opacity:1;fill-rule:evenodd;fill:#5c5c5c;opacity:1"/></svg>
