<svg xmlns:svg="http://www.w3.org/2000/svg" xmlns="http://www.w3.org/2000/svg" version="1.1" width="584" height="1507" viewBox="0 0 584 1507"><path d="M293.2 29.4A259.1 259.1 0 0 0 34.2 288.4 259.1 259.1 0 0 0 150.4 504.4V718H425.9V510.6A259.1 259.1 0 0 0 552.3 288.4 259.1 259.1 0 0 0 293.2 29.4Z" style="fill-opacity:1;fill-rule:evenodd;fill:#fff;opacity:1"/><path d="M292.4 87.6A217.3 217.3 0 0 0 75.1 304.9 217.3 217.3 0 0 0 170.2 484.5v185.3H405V490.5A217.3 217.3 0 0 0 509.7 304.9 217.3 217.3 0 0 0 292.4 87.6Z" style="fill-opacity:1;fill-rule:evenodd;fill:#5c5c5c;opacity:1"/></svg>
