<svg xmlns:svg="http://www.w3.org/2000/svg" xmlns="http://www.w3.org/2000/svg" version="1.1" width="584" height="1507" viewBox="0 0 584 1507"><path d="M292.5 30.9A259.1 259.1 0 0 0 33.4 289.9 259.1 259.1 0 0 0 149.7 505.9v213.6h275.4V512.1A259.1 259.1 0 0 0 551.5 289.9 259.1 259.1 0 0 0 292.5 30.9Z" style="fill-opacity:1;fill-rule:evenodd;fill:#fff;opacity:1"/><path d="M291.6 89.1A217.3 217.3 0 0 0 74.3 306.4 217.3 217.3 0 0 0 169.4 486v185.3h234.8V492A217.3 217.3 0 0 0 508.9 306.4 217.3 217.3 0 0 0 291.6 89.1Z" style="fill-opacity:1;fill-rule:evenodd;fill:#5c5c5c;opacity:1"/></svg>
