<svg xmlns:svg="http://www.w3.org/2000/svg" xmlns="http://www.w3.org/2000/svg" version="1.1" width="584" height="1507" viewBox="0 0 584 1507"><path d="M293.4 27.7A259.1 259.1 0 0 0 34.3 286.7 259.1 259.1 0 0 0 150.6 502.7v213.6h275.4V508.9A259.1 259.1 0 0 0 552.5 286.7 259.1 259.1 0 0 0 293.4 27.7Z" style="fill-opacity:1;fill-rule:evenodd;fill:#fff;opacity:1"/><path d="M292.5 85.9A217.3 217.3 0 0 0 75.2 303.2 217.3 217.3 0 0 0 170.3 482.8v185.3H405.1V488.8A217.3 217.3 0 0 0 509.8 303.2 217.3 217.3 0 0 0 292.5 85.9Z" style="fill-opacity:1;fill-rule:evenodd;fill:#5c5c5c;opacity:1"/></svg>
