<svg xmlns:svg="http://www.w3.org/2000/svg" xmlns="http://www.w3.org/2000/svg" version="1.1" width="584" height="1508" viewBox="0 0 584 1508"><path d="M294 29.6A259.1 259.1 0 0 0 34.9 288.7 259.1 259.1 0 0 0 151.2 504.6v213.6H426.7V510.9A259.1 259.1 0 0 0 553.1 288.7 259.1 259.1 0 0 0 294 29.6Z" style="fill-opacity:1;fill-rule:evenodd;fill:#fff;opacity:1"/><path d="M293.2 87.9A217.3 217.3 0 0 0 75.9 305.2 217.3 217.3 0 0 0 170.9 484.8V670.1H405.7V490.8A217.3 217.3 0 0 0 510.5 305.2 217.3 217.3 0 0 0 293.2 87.9Z" style="fill-opacity:1;fill-rule:evenodd;fill:#5c5c5c;opacity:1"/></svg>
