<svg xmlns:svg="http://www.w3.org/2000/svg" xmlns="http://www.w3.org/2000/svg" version="1.1" width="584" height="1507" viewBox="0 0 584 1507"><path d="M294 27.7A259.1 259.1 0 0 0 34.9 286.7 259.1 259.1 0 0 0 151.2 502.7V716.3H426.6V508.9A259.1 259.1 0 0 0 553.1 286.7 259.1 259.1 0 0 0 294 27.7Z" style="fill-opacity:1;fill-rule:evenodd;fill:#fff;opacity:1"/><path d="M293.1 85.9A217.3 217.3 0 0 0 75.8 303.2 217.3 217.3 0 0 0 170.9 482.8v185.3H405.7V488.8A217.3 217.3 0 0 0 510.4 303.2 217.3 217.3 0 0 0 293.1 85.9Z" style="fill-opacity:1;fill-rule:evenodd;fill:#5c5c5c;opacity:1"/></svg>
