<svg xmlns:svg="http://www.w3.org/2000/svg" xmlns="http://www.w3.org/2000/svg" version="1.1" width="584" height="1507" viewBox="0 0 584 1507"><path d="M290.9 29.4A259.1 259.1 0 0 0 31.8 288.4 259.1 259.1 0 0 0 148.1 504.4v213.6h275.4V510.6A259.1 259.1 0 0 0 549.9 288.4 259.1 259.1 0 0 0 290.9 29.4Z" style="fill-opacity:1;fill-rule:evenodd;fill:#fff;opacity:1"/><path d="M290 87.6A217.3 217.3 0 0 0 72.7 304.9 217.3 217.3 0 0 0 167.8 484.5v185.3H402.6V490.5A217.3 217.3 0 0 0 507.3 304.9 217.3 217.3 0 0 0 290 87.6Z" style="fill-opacity:1;fill-rule:evenodd;fill:#5c5c5c;opacity:1"/></svg>
