<svg xmlns:svg="http://www.w3.org/2000/svg" xmlns="http://www.w3.org/2000/svg" version="1.1" width="1264" height="1264" viewBox="0 0 1264 1264"><rect width="877.4" height="877.4" x="-700.9" y="403.1" transform="rotate(-62.876816)" style="fill-opacity:1;fill-rule:evenodd;fill:#56abce;opacity:1"/><rect width="284.2" height="101" x="-188.4" y="555.5" transform="rotate(-62.876816)" style="fill-opacity:1;fill-rule:evenodd;fill:#fff;opacity:1"/><rect width="284.2" height="101" x="466.8" y="-3.4" transform="rotate(27.123184)" style="fill-opacity:1;fill-rule:evenodd;fill:#fff;opacity:1"/><path d="m457.3 881.2a144 144 0 0 0 162.4 97.4l0.5 1.4 18.4-5.9 255.6-82.5-86.7-268.7-1.7-5.3-0.2 0.1A144 144 0 0 0 626.3 530 144 144 0 0 0 532 705.8l-0.3 0.1 0.5 1.4a144 144 0 0 0-74.9 173.9z" style="fill-opacity:1;fill-rule:evenodd;fill:#fff;opacity:1"/><path d="M585.9 692.4 668.2 827 692.7 712.8 773.6 818" style="fill:none;stroke-dasharray:none;stroke-linecap:butt;stroke-linejoin:miter;stroke-miterlimit:4;stroke-opacity:1;stroke-width:26.5;stroke:#56abce"/><path d="m1996.1 931.5-108.2 53.8 9.9-120.5 7.5-120.6 99.4 68.8 100.7 66.8z" transform="matrix(0.18959685,-0.48603897,0.44379663,0.1615777,23.090113,1647.8536)" style="fill-opacity:1;fill-rule:evenodd;fill:#56abce;opacity:1"/></svg>
