<svg xmlns:svg="http://www.w3.org/2000/svg" xmlns="http://www.w3.org/2000/svg" version="1.1" width="3522" height="1402" viewBox="0 0 3522 1402"><path d="M6977.6 1807.8A826 826 0 0 0 6944 1809L6944 3458A826 826 0 0 0 6977.6 3459.7 826 826 0 0 0 7803.5 2633.8 826 826 0 0 0 6977.6 1807.8z" transform="scale(0.26458334)" style="fill:none;opacity:1;stroke-dasharray:none;stroke-miterlimit:4;stroke-opacity:1;stroke-width:50;stroke:#ff7c00"/><path d="m2062.4 698.6h560" style="fill:none;stroke-dasharray:none;stroke-linecap:butt;stroke-linejoin:miter;stroke-miterlimit:4;stroke-opacity:1;stroke-width:13.2;stroke:#ff7c00"/><path d="m2758.9 698.6h91.1M2960 698.6" style="fill:none;stroke-dasharray:none;stroke-linecap:butt;stroke-linejoin:miter;stroke-miterlimit:4;stroke-opacity:1;stroke-width:13.2;stroke:#ff7c00"/><path d="m2960 698.6h498.4" style="fill:none;stroke-dasharray:none;stroke-linecap:butt;stroke-linejoin:miter;stroke-miterlimit:4;stroke-opacity:1;stroke-width:13.2;stroke:#ff7c00"/><path d="M2926.5 567.5 3278.9 215.1" style="fill:none;stroke-dasharray:none;stroke-linecap:butt;stroke-linejoin:miter;stroke-miterlimit:4;stroke-opacity:1;stroke-width:13.2;stroke:#ff7c00"/><path d="M2806.8 514.2V15.7" style="fill:none;stroke-dasharray:none;stroke-linecap:butt;stroke-linejoin:miter;stroke-miterlimit:4;stroke-opacity:1;stroke-width:13.2;stroke:#ff7c00"/><path d="m2307.3 201.4 352.4 352.4" style="fill:none;stroke-dasharray:none;stroke-linecap:butt;stroke-linejoin:miter;stroke-miterlimit:4;stroke-opacity:1;stroke-width:13.2;stroke:#ff7c00"/><path d="m2926.5 826.3 352.4 352.4" style="fill:none;stroke-dasharray:none;stroke-linecap:butt;stroke-linejoin:miter;stroke-miterlimit:4;stroke-opacity:1;stroke-width:13.2;stroke:#ff7c00"/><path d="M2806.8 879.6V1378" style="fill:none;stroke-dasharray:none;stroke-linecap:butt;stroke-linejoin:miter;stroke-miterlimit:4;stroke-opacity:1;stroke-width:13.2;stroke:#ff7c00"/><path d="M2307.3 1192.3 2659.8 839.9" style="fill:none;stroke-dasharray:none;stroke-linecap:butt;stroke-linejoin:miter;stroke-miterlimit:4;stroke-opacity:1;stroke-width:13.2;stroke:#ff7c00"/></svg>
