<?xml version="1.0" encoding="UTF-8" standalone="no"?>
<svg
   xmlns:dc="http://purl.org/dc/elements/1.1/"
   xmlns:cc="http://creativecommons.org/ns#"
   xmlns:rdf="http://www.w3.org/1999/02/22-rdf-syntax-ns#"
   xmlns:svg="http://www.w3.org/2000/svg"
   xmlns="http://www.w3.org/2000/svg"
   xmlns:sodipodi="http://sodipodi.sourceforge.net/DTD/sodipodi-0.dtd"
   xmlns:inkscape="http://www.inkscape.org/namespaces/inkscape"
   version="1.1"
   width="7312"
   height="8454"
   viewBox="0 0 7312 8454"
   id="svg16"
   sodipodi:docname="BACUL_FANAL-bacul(m_barcelona).svg"
   inkscape:version="0.92.2 (5c3e80d, 2017-08-06)">
  <metadata
     id="metadata22">
    <rdf:RDF>
      <cc:Work
         rdf:about="">
        <dc:format>image/svg+xml</dc:format>
        <dc:type
           rdf:resource="http://purl.org/dc/dcmitype/StillImage" />
        <dc:title></dc:title>
      </cc:Work>
    </rdf:RDF>
  </metadata>
  <defs
     id="defs20" />
  <sodipodi:namedview
     pagecolor="#ffffff"
     bordercolor="#666666"
     borderopacity="1"
     objecttolerance="10"
     gridtolerance="10"
     guidetolerance="10"
     inkscape:pageopacity="0"
     inkscape:pageshadow="2"
     inkscape:window-width="1920"
     inkscape:window-height="1018"
     id="namedview18"
     showgrid="false"
     inkscape:zoom="0.078957748"
     inkscape:cx="1767.6086"
     inkscape:cy="4553.1402"
     inkscape:window-x="-8"
     inkscape:window-y="-8"
     inkscape:window-maximized="1"
     inkscape:current-layer="svg16" />
  <circle
     cx="3585.2"
     cy="4122.5"
     r="105.8"
     style="fill:none;opacity:1;stroke-dasharray:none;stroke-miterlimit:4;stroke-opacity:1;stroke-width:55.35;stroke:#ff7c00"
     id="circle2" />
  <path
     d="m3476 4134.7-2120 539.1 26.5 105.8L3492.5 4174.4ZM3181.6 4200.8l-19.8-59.5-241.4 16.5-2649.1 721 76.1 271.2 2649.1-721 221.6-112.4-19.8-56.2"
     style="fill:none;stroke-dasharray:none;stroke-linecap:butt;stroke-linejoin:miter;stroke-miterlimit:4;stroke-opacity:0.8;stroke-width:55.35;stroke:#ff7d00"
     id="path4" />
  <path
     d="m3181.6 4200.8-19.8-59.5-241.4 16.5-2649.1 721 76.1 271.2 2649.1-721 221.6-112.4-19.8-56.2"
     style="fill:none;stroke-dasharray:none;stroke-linecap:butt;stroke-linejoin:miter;stroke-miterlimit:4;stroke-opacity:0.8;stroke-width:55.35;stroke:#ff7d00"
     id="path6" />
  <path
     d="m3614.1 4012.6 43-2187-109.1-2.6 23.4 2195zM3628.5 3711.3l62.7-3.3 48.1-237.2 8.1-2745.5-281.7 1.3-8.1 2745.5 49.6 243.5 59.5-4.2"
     style="fill:none;stroke-dasharray:none;stroke-linecap:butt;stroke-linejoin:miter;stroke-miterlimit:4;stroke-opacity:0.8;stroke-width:55.35;stroke:#ff7d00"
     id="path8" />
  <path
     d="m3628.5 3711.3 62.7-3.3 48.1-237.2 8.1-2745.5-281.7 1.3-8.1 2745.5 49.6 243.5 59.5-4.2"
     style="fill:none;stroke-dasharray:none;stroke-linecap:butt;stroke-linejoin:miter;stroke-miterlimit:4;stroke-opacity:0.8;stroke-width:55.35;stroke:#ff7d00"
     id="path10" />
  <path
     d="m3641.9 4214.3 1537 1556.4 77.9-76.3-1589.1-1514.4z"
     style="fill:none;stroke-dasharray:none;stroke-linecap:butt;stroke-linejoin:miter;stroke-miterlimit:4;stroke-opacity:0.8;stroke-width:55.35;stroke:#ff7d00"
     id="path12" />
  <path
     d="m3847.8 4434.8-41.3 47.2 136.3 199.9 1961.5 1921 195.5-202.8-1961.5-1921-209.1-134.3-38.5 45.5"
     style="fill:none;stroke-dasharray:none;stroke-linecap:butt;stroke-linejoin:miter;stroke-miterlimit:4;stroke-opacity:0.8;stroke-width:55.35;stroke:#ff7d00"
     id="path14" />
</svg>
