<svg xmlns:svg="http://www.w3.org/2000/svg" xmlns="http://www.w3.org/2000/svg" version="1.1" width="2291.7" height="1488.3" viewBox="0 0 2291.7 1488.3"><path d="M160.9 1249.1H2201.9l-328.6 174.4H420.3Z" style="fill-opacity:1;fill:#008fee"/><circle cx="829.3" cy="1193.3" r="1.5" fill="#000"/><path d="M2230.5 1130.5L2230.5 3698.9C2307.7 4141.3 2614.7 4369.3 3028.9 4497.3L5626.9 4497.3C6145.3 4439.6 6360.6 4110.6 6452.7 3671.4L6452.7 2795.5A884.1 884.1 0 0 0 7040 3019.9 884.1 884.1 0 0 0 7924.1 2135.9 884.1 884.1 0 0 0 7040 1251.8 884.1 884.1 0 0 0 6452.7 1476.5L6452.7 1138.9 2230.5 1130.5z" transform="scale(0.26458333)" style="fill-opacity:1;fill:#008fee"/><circle cx="1864.3" cy="565.1" r="139.1" style="fill-opacity:1;fill-rule:evenodd;fill:#fff;opacity:1"/></svg>
