<svg xmlns:svg="http://www.w3.org/2000/svg" xmlns="http://www.w3.org/2000/svg" version="1.1" width="1216" height="1212" viewBox="0 0 1216 1212"><path d="M630.9 1071.5A2022.7 2055.9 0 0 1 2282.5 202.5 2022.7 2055.9 0 0 1 3933.6 1070.8" transform="scale(0.26458333)" style="fill:none;opacity:1;stroke-dasharray:none;stroke-dashoffset:0;stroke-miterlimit:4;stroke-opacity:1;stroke-width:51.3;stroke:#00db00"/><path d="M551.9 3322.7A2022.7 2055.9 0 0 1 259.8 2258.4 2022.7 2055.9 0 0 1 324.5 1742.8" transform="scale(0.26458333)" style="fill:none;opacity:1;stroke-dasharray:none;stroke-dashoffset:0;stroke-miterlimit:4;stroke-opacity:1;stroke-width:51.3;stroke:#00db00"/><path d="M3087.6 4144.4A2022.7 2055.9 0 0 1 2282.5 4314.3 2022.7 2055.9 0 0 1 1491.6 4150.6" transform="scale(0.26458333)" style="fill:none;opacity:1;stroke-dasharray:none;stroke-dashoffset:0;stroke-miterlimit:4;stroke-opacity:1;stroke-width:51.3;stroke:#00db00"/><path d="M4240.7 1743.1A2022.7 2055.9 0 0 1 4305.2 2258.4L4305.2 2258.4 4305.2 2258.4A2022.7 2055.9 0 0 1 4018.9 3313" transform="scale(0.26458333)" style="fill:none;opacity:1;stroke-dasharray:none;stroke-dashoffset:0;stroke-miterlimit:4;stroke-opacity:1;stroke-width:51.3;stroke:#00db00"/><path d="m166.9 283.5h223.4l212.7 750.9 201.8-753 236 1.9" style="fill:none;stroke-dasharray:none;stroke-linecap:butt;stroke-linejoin:miter;stroke-miterlimit:4;stroke-opacity:1;stroke-width:13.2;stroke:#00db00"/></svg>
