<svg xmlns:svg="http://www.w3.org/2000/svg" xmlns="http://www.w3.org/2000/svg" version="1.1" width="11108" height="29484" viewBox="0 0 11108 29484"><rect width="4142.1" height="3201.6" x="3409.3" y="12679.6" style="fill:none;opacity:1;stroke-dasharray:none;stroke-dashoffset:0;stroke-miterlimit:4;stroke-opacity:1;stroke-width:29.7;stroke:#ab00ab"/><path d="m9117.3 10920.2h922.2" style="fill:none;stroke-dasharray:none;stroke-linecap:butt;stroke-linejoin:miter;stroke-miterlimit:4;stroke-opacity:1;stroke-width:29.7;stroke:#ad2db3"/><path d="M10057.7 10273.4H9135.6" style="fill:none;stroke-dasharray:none;stroke-linecap:butt;stroke-linejoin:miter;stroke-miterlimit:4;stroke-opacity:1;stroke-width:29.7;stroke:#ad2db3"/><path d="M7096 12674.5 9576.3 10954.9 7551.6 13179.2" style="fill:none;stroke-dasharray:none;stroke-linecap:butt;stroke-linejoin:miter;stroke-miterlimit:4;stroke-opacity:1;stroke-width:29.7;stroke:#ad2db3"/><path d="M10057.7 17653.8H9135.6" style="fill:none;stroke-dasharray:none;stroke-linecap:butt;stroke-linejoin:miter;stroke-miterlimit:4;stroke-opacity:1;stroke-width:29.7;stroke:#ad2db3"/><path d="M10057.7 18300.6H9135.6" style="fill:none;stroke-dasharray:none;stroke-linecap:butt;stroke-linejoin:miter;stroke-miterlimit:4;stroke-opacity:1;stroke-width:29.7;stroke:#ad2db3"/><path d="m7060 15880.6 2548.9 1776.2-2053.9-2255.2" style="fill:none;stroke-dasharray:none;stroke-linecap:butt;stroke-linejoin:miter;stroke-miterlimit:4;stroke-opacity:1;stroke-width:29.7;stroke:#ad2db3"/><path d="M1855.5 10920.2H933.3" style="fill:none;stroke-dasharray:none;stroke-linecap:butt;stroke-linejoin:miter;stroke-miterlimit:4;stroke-opacity:1;stroke-width:29.7;stroke:#ad2db3"/><path d="M915.1 10273.4H1837.3" style="fill:none;stroke-dasharray:none;stroke-linecap:butt;stroke-linejoin:miter;stroke-miterlimit:4;stroke-opacity:1;stroke-width:29.7;stroke:#ad2db3"/><path d="m3876.8 12674.5-2512.9-1757.3 2044.6 2247" style="fill:none;stroke-dasharray:none;stroke-linecap:butt;stroke-linejoin:miter;stroke-miterlimit:4;stroke-opacity:1;stroke-width:29.7;stroke:#ad2db3"/><path d="M915.1 17653.8H1837.3" style="fill:none;stroke-dasharray:none;stroke-linecap:butt;stroke-linejoin:miter;stroke-miterlimit:4;stroke-opacity:1;stroke-width:29.7;stroke:#ad2db3"/><path d="M915.1 18300.6H1837.3" style="fill:none;stroke-dasharray:none;stroke-linecap:butt;stroke-linejoin:miter;stroke-miterlimit:4;stroke-opacity:1;stroke-width:29.7;stroke:#ad2db3"/><path d="M3885.3 15883.8 1363.9 17656.8 3408.5 15415.5" style="fill:none;stroke-dasharray:none;stroke-linecap:butt;stroke-linejoin:miter;stroke-miterlimit:4;stroke-opacity:1;stroke-width:29.7;stroke:#ad2db3"/><path d="M4107.9 12683 5034.3 669h897L6872.4 12683 4284.4 10565.5 6548.9 8580.3 4578.5 6698 6284.2 5007 4828.5 3433.5 6049 2036.6 5063.7 713.1" style="fill:none;stroke-dasharray:none;stroke-linecap:butt;stroke-linejoin:miter;stroke-miterlimit:4;stroke-opacity:1;stroke-width:29.7;stroke:#ad2db3"/><path d="M5931.3 669 4960.8 1992.5 6151.9 3418.8 4710.8 5021.7 6401.9 6712.8 4446.1 8565.6 6681.3 10521.3 4107.9 12683" style="fill:none;stroke-dasharray:none;stroke-linecap:butt;stroke-linejoin:miter;stroke-miterlimit:4;stroke-opacity:1;stroke-width:29.7;stroke:#ad2db3"/></svg>
