<svg xmlns:svg="http://www.w3.org/2000/svg" xmlns="http://www.w3.org/2000/svg" version="1.1" width="6112" height="17874" viewBox="0 0 6112 17874"><rect width="2399.1" height="1854.4" x="1876.7" y="7704.1" style="fill:none;opacity:1;stroke-dasharray:none;stroke-dashoffset:0;stroke-miterlimit:4;stroke-opacity:1;stroke-width:17.2;stroke:#ab00ab"/><path d="M5182.9 6685H5717" style="fill:none;stroke-dasharray:none;stroke-linecap:butt;stroke-linejoin:miter;stroke-miterlimit:4;stroke-opacity:1;stroke-width:17.2;stroke:#ad2db3"/><path d="M5727.5 6310.4H5193.4" style="fill:none;stroke-dasharray:none;stroke-linecap:butt;stroke-linejoin:miter;stroke-miterlimit:4;stroke-opacity:1;stroke-width:17.2;stroke:#ad2db3"/><path d="M4012.1 7701.1 5448.7 6705.1 4275.9 7993.4" style="fill:none;stroke-dasharray:none;stroke-linecap:butt;stroke-linejoin:miter;stroke-miterlimit:4;stroke-opacity:1;stroke-width:17.2;stroke:#ad2db3"/><path d="M5727.5 10585.2H5193.4" style="fill:none;stroke-dasharray:none;stroke-linecap:butt;stroke-linejoin:miter;stroke-miterlimit:4;stroke-opacity:1;stroke-width:17.2;stroke:#ad2db3"/><path d="M5727.5 10959.9H5193.4" style="fill:none;stroke-dasharray:none;stroke-linecap:butt;stroke-linejoin:miter;stroke-miterlimit:4;stroke-opacity:1;stroke-width:17.2;stroke:#ad2db3"/><path d="M3991.2 9558.2 5467.6 10587 4277.9 9280.8" style="fill:none;stroke-dasharray:none;stroke-linecap:butt;stroke-linejoin:miter;stroke-miterlimit:4;stroke-opacity:1;stroke-width:17.2;stroke:#ad2db3"/><path d="M976.6 6685H442.5" style="fill:none;stroke-dasharray:none;stroke-linecap:butt;stroke-linejoin:miter;stroke-miterlimit:4;stroke-opacity:1;stroke-width:17.2;stroke:#ad2db3"/><path d="m432 6310.4h534.1" style="fill:none;stroke-dasharray:none;stroke-linecap:butt;stroke-linejoin:miter;stroke-miterlimit:4;stroke-opacity:1;stroke-width:17.2;stroke:#ad2db3"/><path d="M2147.4 7701.1 691.9 6683.3 1876.2 7984.8" style="fill:none;stroke-dasharray:none;stroke-linecap:butt;stroke-linejoin:miter;stroke-miterlimit:4;stroke-opacity:1;stroke-width:17.2;stroke:#ad2db3"/><path d="m432 10585.2h534.1" style="fill:none;stroke-dasharray:none;stroke-linecap:butt;stroke-linejoin:miter;stroke-miterlimit:4;stroke-opacity:1;stroke-width:17.2;stroke:#ad2db3"/><path d="m432 10959.9h534.1" style="fill:none;stroke-dasharray:none;stroke-linecap:butt;stroke-linejoin:miter;stroke-miterlimit:4;stroke-opacity:1;stroke-width:17.2;stroke:#ad2db3"/><path d="M2152.4 9560 691.9 10587 1876.2 9288.8" style="fill:none;stroke-dasharray:none;stroke-linecap:butt;stroke-linejoin:miter;stroke-miterlimit:4;stroke-opacity:1;stroke-width:17.2;stroke:#ad2db3"/><path d="M2281.3 7706 2817.9 747.4h519.6L3882.6 7706 2383.5 6479.5 3695.2 5329.7 2553.9 4239.5l988-979.5-843.2-911.4 706.9-809.2-570.7-766.6" style="fill:none;stroke-dasharray:none;stroke-linecap:butt;stroke-linejoin:miter;stroke-miterlimit:4;stroke-opacity:1;stroke-width:17.2;stroke:#ad2db3"/><path d="M3337.5 747.4 2775.3 1513.9 3465.2 2340.1 2630.5 3268.5 3610 4248 2477.2 5321.2 3771.8 6454 2281.3 7706" style="fill:none;stroke-dasharray:none;stroke-linecap:butt;stroke-linejoin:miter;stroke-miterlimit:4;stroke-opacity:1;stroke-width:17.2;stroke:#ad2db3"/></svg>
