<svg xmlns:svg="http://www.w3.org/2000/svg" xmlns="http://www.w3.org/2000/svg" version="1.1" width="10062" height="26714" viewBox="0 0 10062 26714"><rect width="3693.7" height="2855.1" x="3179.9" y="11486.3" style="fill:none;opacity:1;stroke-dasharray:none;stroke-dashoffset:0;stroke-miterlimit:4;stroke-opacity:1;stroke-width:26.5;stroke:#ab00ab"/><path d="m8270.1 9917.4h822.4" style="fill:none;stroke-dasharray:none;stroke-linecap:butt;stroke-linejoin:miter;stroke-miterlimit:4;stroke-opacity:1;stroke-width:26.5;stroke:#ad2db3"/><path d="M9108.7 9340.6H8286.4" style="fill:none;stroke-dasharray:none;stroke-linecap:butt;stroke-linejoin:miter;stroke-miterlimit:4;stroke-opacity:1;stroke-width:26.5;stroke:#ad2db3"/><path d="M6467.6 11481.8 8679.4 9948.4 6873.8 11931.9" style="fill:none;stroke-dasharray:none;stroke-linecap:butt;stroke-linejoin:miter;stroke-miterlimit:4;stroke-opacity:1;stroke-width:26.5;stroke:#ad2db3"/><path d="M9108.7 15922.2H8286.4" style="fill:none;stroke-dasharray:none;stroke-linecap:butt;stroke-linejoin:miter;stroke-miterlimit:4;stroke-opacity:1;stroke-width:26.5;stroke:#ad2db3"/><path d="M9108.7 16499H8286.4" style="fill:none;stroke-dasharray:none;stroke-linecap:butt;stroke-linejoin:miter;stroke-miterlimit:4;stroke-opacity:1;stroke-width:26.5;stroke:#ad2db3"/><path d="M6435.4 14340.9 8708.5 15924.9 6876.9 13913.8" style="fill:none;stroke-dasharray:none;stroke-linecap:butt;stroke-linejoin:miter;stroke-miterlimit:4;stroke-opacity:1;stroke-width:26.5;stroke:#ad2db3"/><path d="M1794.2 9917.4H971.9" style="fill:none;stroke-dasharray:none;stroke-linecap:butt;stroke-linejoin:miter;stroke-miterlimit:4;stroke-opacity:1;stroke-width:26.5;stroke:#ad2db3"/><path d="M955.6 9340.6H1778" style="fill:none;stroke-dasharray:none;stroke-linecap:butt;stroke-linejoin:miter;stroke-miterlimit:4;stroke-opacity:1;stroke-width:26.5;stroke:#ad2db3"/><path d="M3596.8 11481.8 1355.9 9914.7 3179.2 11918.5" style="fill:none;stroke-dasharray:none;stroke-linecap:butt;stroke-linejoin:miter;stroke-miterlimit:4;stroke-opacity:1;stroke-width:26.5;stroke:#ad2db3"/><path d="M955.6 15922.2H1778" style="fill:none;stroke-dasharray:none;stroke-linecap:butt;stroke-linejoin:miter;stroke-miterlimit:4;stroke-opacity:1;stroke-width:26.5;stroke:#ad2db3"/><path d="M955.6 16499H1778" style="fill:none;stroke-dasharray:none;stroke-linecap:butt;stroke-linejoin:miter;stroke-miterlimit:4;stroke-opacity:1;stroke-width:26.5;stroke:#ad2db3"/><path d="M3604.4 14343.8 1355.9 15924.9 3179.2 13926.1" style="fill:none;stroke-dasharray:none;stroke-linecap:butt;stroke-linejoin:miter;stroke-miterlimit:4;stroke-opacity:1;stroke-width:26.5;stroke:#ad2db3"/><path d="M3802.9 11489.4 4629 775.8H5428.9L6268.2 11489.4 3960.2 9601.1 5979.7 7830.8 4222.5 6152.3 5743.7 4644.2 4445.4 3241.1 5533.8 1995.3 4655.2 815.1" style="fill:none;stroke-dasharray:none;stroke-linecap:butt;stroke-linejoin:miter;stroke-miterlimit:4;stroke-opacity:1;stroke-width:26.5;stroke:#ad2db3"/><path d="M5428.9 775.8 4563.4 1956 5625.6 3228 4340.5 4657.3 5848.6 6165.4 4104.5 7817.7 6097.7 9561.7 3802.9 11489.4" style="fill:none;stroke-dasharray:none;stroke-linecap:butt;stroke-linejoin:miter;stroke-miterlimit:4;stroke-opacity:1;stroke-width:26.5;stroke:#ad2db3"/></svg>
