<svg xmlns:svg="http://www.w3.org/2000/svg" xmlns="http://www.w3.org/2000/svg" version="1.1" width="19002" height="105000" viewBox="0 0 19002 105000"><rect width="10936.7" height="4616.3" x="4017" y="49614.1" style="fill:none;opacity:1;stroke-dasharray:none;stroke-dashoffset:0;stroke-miterlimit:4;stroke-opacity:1;stroke-width:52.9;stroke:#ab00ab"/><path d="m7686 38003.1v-33781.9 0H11311.1V38003.1" style="fill:none;opacity:1;stroke-dasharray:none;stroke-dashoffset:0;stroke-miterlimit:4;stroke-opacity:1;stroke-width:52.6;stroke:#ab00ab"/><path d="m11311 38003.2v11617.3H7686.1l0-11617.2" style="fill:none;opacity:1;stroke-dasharray:none;stroke-dashoffset:0;stroke-miterlimit:4;stroke-opacity:1;stroke-width:52.8;stroke:#ab00ab"/><rect width="4445" height="7911" x="7633.2" y="42185.6" style="fill:none;opacity:1"/><path d="m7682.4 65842.5v21905.5 0H11314.6V65842.5" style="fill:none;opacity:1;stroke-dasharray:none;stroke-dashoffset:0;stroke-miterlimit:4;stroke-opacity:1;stroke-width:52.9;stroke:#ab00ab"/><path d="M11311 65839.5V54222.2H7686.1l0 11617.3" style="fill:none;opacity:1;stroke-dasharray:none;stroke-dashoffset:0;stroke-miterlimit:4;stroke-opacity:1;stroke-width:52.9;stroke:#ab00ab"/><path d="m11324.1 58712.4h6753.2V44209.4h-6770" style="fill:none;opacity:1;stroke-dasharray:none;stroke-dashoffset:0;stroke-miterlimit:4;stroke-opacity:1;stroke-width:38.3;stroke:#ac12af"/><path d="M7683.4 44209.4H866.9v0.5 0.5 0 14501.9H7686.5" style="fill:none;opacity:1;stroke-dasharray:none;stroke-dashoffset:0;stroke-miterlimit:4;stroke-opacity:1;stroke-width:38.3;stroke:#ac12af"/><path d="M7692.2 57783.5H1754.5v-12678.8 0h5927.8M11308.5 45104.7" style="fill:none;opacity:1;stroke-dasharray:none;stroke-dashoffset:0;stroke-miterlimit:4;stroke-opacity:1;stroke-width:46.2;stroke:#ac12af"/><path d="m11308.5 45104.7h5881.3v12678.8h-5874.6" style="fill:none;opacity:1;stroke-dasharray:none;stroke-dashoffset:0;stroke-miterlimit:4;stroke-opacity:1;stroke-width:46.2;stroke:#ac12af"/><path d="M7686.1 49620.5 1754.5 45104.7 4021.7 50919.2" style="fill:none;stroke-dasharray:none;stroke-linecap:butt;stroke-linejoin:miter;stroke-miterlimit:4;stroke-opacity:0.8;stroke-width:52.9;stroke:#ad22b1"/><path d="M3995.2 52877.1 1754.5 57783.5 7686.1 54222.2" style="fill:none;stroke-dasharray:none;stroke-linecap:butt;stroke-linejoin:miter;stroke-miterlimit:4;stroke-opacity:0.8;stroke-width:52.9;stroke:#ad22b1"/><path d="m11311 54222.2 5878.7 3561.3-2240.7-5012.3" style="fill:none;stroke-dasharray:none;stroke-linecap:butt;stroke-linejoin:miter;stroke-miterlimit:4;stroke-opacity:0.8;stroke-width:52.9;stroke:#ad22b1"/><path d="m14922.5 50892.7 2267.2-5788-5878.7 4515.7" style="fill:none;stroke-dasharray:none;stroke-linecap:butt;stroke-linejoin:miter;stroke-miterlimit:4;stroke-opacity:0.8;stroke-width:52.9;stroke:#ad22b1"/></svg>
