<svg xmlns:svg="http://www.w3.org/2000/svg" xmlns="http://www.w3.org/2000/svg" version="1.1" width="11108" height="29484" viewBox="0 0 11108 29484"><rect width="4155.5" height="3229.2" x="3437" y="12571.5" style="fill:none;opacity:1;stroke-dasharray:none;stroke-dashoffset:0;stroke-miterlimit:4;stroke-opacity:1;stroke-width:29.8;stroke:#ab00ab"/><path d="m9163.5 10797h925.1" style="fill:none;stroke-dasharray:none;stroke-linecap:butt;stroke-linejoin:miter;stroke-miterlimit:4;stroke-opacity:1;stroke-width:29.8;stroke:#ad2db3"/><path d="M10106.9 10144.6H9181.8" style="fill:none;stroke-dasharray:none;stroke-linecap:butt;stroke-linejoin:miter;stroke-miterlimit:4;stroke-opacity:1;stroke-width:29.8;stroke:#ad2db3"/><path d="M7135.6 12566.4 9624 10832 7592.6 13075.4" style="fill:none;stroke-dasharray:none;stroke-linecap:butt;stroke-linejoin:miter;stroke-miterlimit:4;stroke-opacity:1;stroke-width:29.8;stroke:#ad2db3"/><path d="M10106.9 17588.6H9181.8" style="fill:none;stroke-dasharray:none;stroke-linecap:butt;stroke-linejoin:miter;stroke-miterlimit:4;stroke-opacity:1;stroke-width:29.8;stroke:#ad2db3"/><path d="M10106.9 18240.9H9181.8" style="fill:none;stroke-dasharray:none;stroke-linecap:butt;stroke-linejoin:miter;stroke-miterlimit:4;stroke-opacity:1;stroke-width:29.8;stroke:#ad2db3"/><path d="M7099.5 15800.1 9656.6 17591.6 7596.1 15317.1" style="fill:none;stroke-dasharray:none;stroke-linecap:butt;stroke-linejoin:miter;stroke-miterlimit:4;stroke-opacity:1;stroke-width:29.8;stroke:#ad2db3"/><path d="M1878.1 10797H952.9" style="fill:none;stroke-dasharray:none;stroke-linecap:butt;stroke-linejoin:miter;stroke-miterlimit:4;stroke-opacity:1;stroke-width:29.8;stroke:#ad2db3"/><path d="M934.7 10144.6H1859.8" style="fill:none;stroke-dasharray:none;stroke-linecap:butt;stroke-linejoin:miter;stroke-miterlimit:4;stroke-opacity:1;stroke-width:29.8;stroke:#ad2db3"/><path d="M3906 12566.4 1384.9 10793.9 3436.2 13060.3" style="fill:none;stroke-dasharray:none;stroke-linecap:butt;stroke-linejoin:miter;stroke-miterlimit:4;stroke-opacity:1;stroke-width:29.8;stroke:#ad2db3"/><path d="M934.7 17588.6H1859.8" style="fill:none;stroke-dasharray:none;stroke-linecap:butt;stroke-linejoin:miter;stroke-miterlimit:4;stroke-opacity:1;stroke-width:29.8;stroke:#ad2db3"/><path d="M934.7 18240.9H1859.8" style="fill:none;stroke-dasharray:none;stroke-linecap:butt;stroke-linejoin:miter;stroke-miterlimit:4;stroke-opacity:1;stroke-width:29.8;stroke:#ad2db3"/><path d="M3914.5 15803.4 1384.9 17591.6 3436.2 15331" style="fill:none;stroke-dasharray:none;stroke-linecap:butt;stroke-linejoin:miter;stroke-miterlimit:4;stroke-opacity:1;stroke-width:29.8;stroke:#ad2db3"/><path d="M4137.8 12574.9 5067.2 457.5h899.9L6911.3 12574.9 4314.9 10439.2 6586.8 8436.9 4609.9 6538.5 6321.2 4832.8 4860.7 3245.8 6085.2 1836.8 5096.7 502" style="fill:none;stroke-dasharray:none;stroke-linecap:butt;stroke-linejoin:miter;stroke-miterlimit:4;stroke-opacity:1;stroke-width:29.8;stroke:#ad2db3"/><path d="M5967.1 457.5 4993.5 1792.3 6188.4 3231 4742.7 4847.6 6439.2 6553.3 4477.1 8422.1 6719.5 10394.7 4137.8 12574.9" style="fill:none;stroke-dasharray:none;stroke-linecap:butt;stroke-linejoin:miter;stroke-miterlimit:4;stroke-opacity:1;stroke-width:29.8;stroke:#ad2db3"/></svg>
