<svg xmlns:svg="http://www.w3.org/2000/svg" xmlns="http://www.w3.org/2000/svg" version="1.1" width="19000" height="105000" viewBox="0 0 19000 105000"><rect width="10936.7" height="4616.3" x="4003.7" y="49590" style="fill:none;opacity:1;stroke-dasharray:none;stroke-dashoffset:0;stroke-miterlimit:4;stroke-opacity:1;stroke-width:52.9;stroke:#ab00ab"/><path d="m7672.8 37978.9 0-33755.5v0H11297.8v33755.5" style="fill:none;opacity:1;stroke-dasharray:none;stroke-dashoffset:0;stroke-miterlimit:4;stroke-opacity:1;stroke-width:52.6;stroke:#ab00ab"/><path d="M11297.8 37979.1V49596.3H7672.9l0-11617.3" style="fill:none;opacity:1;stroke-dasharray:none;stroke-dashoffset:0;stroke-miterlimit:4;stroke-opacity:1;stroke-width:52.8;stroke:#ab00ab"/><rect width="4445" height="7911" x="7620" y="42161.5" style="fill:none;opacity:1"/><path d="m7669.2 65818.4 0 21905.5v0H11301.4V65818.4" style="fill:none;opacity:1;stroke-dasharray:none;stroke-dashoffset:0;stroke-miterlimit:4;stroke-opacity:1;stroke-width:52.9;stroke:#ab00ab"/><path d="M11297.8 65815.3V54198H7672.9l0 11617.3" style="fill:none;opacity:1;stroke-dasharray:none;stroke-dashoffset:0;stroke-miterlimit:4;stroke-opacity:1;stroke-width:52.9;stroke:#ab00ab"/><path d="m42749.7 248324.4 25524.3 0V143476.4h-25587.9" transform="scale(0.26458333)" style="fill:none;opacity:1;stroke-dasharray:none;stroke-dashoffset:0;stroke-miterlimit:4;stroke-opacity:1;stroke-width:200;stroke:#ac12af"/><path d="M28989.6 143476.4H3226v3.8 3.8 0 104840.4l25775.4 0" transform="scale(0.26458333)" style="fill:none;opacity:1;stroke-dasharray:none;stroke-dashoffset:0;stroke-miterlimit:4;stroke-opacity:1;stroke-width:200;stroke:#ac12af"/><path d="m29027.1 244750.4-22427.1 0v-97772.4 0H28989.6" transform="scale(0.26458333)" style="fill:none;opacity:1;stroke-dasharray:none;stroke-dashoffset:0;stroke-miterlimit:4;stroke-opacity:1;stroke-width:249.4;stroke:#ac12af"/><path d="M42686.1 146977.9H64900v97772.4l-22188.9 0" transform="scale(0.26458333)" style="fill:none;opacity:1;stroke-dasharray:none;stroke-dashoffset:0;stroke-miterlimit:4;stroke-opacity:1;stroke-width:249.4;stroke:#ac12af"/><path d="M7672.9 49596.3 1746.3 38887.9 3968.8 51025" style="fill:none;stroke-dasharray:none;stroke-linecap:butt;stroke-linejoin:miter;stroke-miterlimit:4;stroke-opacity:1;stroke-width:52.9;stroke:#ac12af"/><path d="M11297.8 49596.3 17171.5 38887.9 14922.5 50998.5" style="fill:none;stroke-dasharray:none;stroke-linecap:butt;stroke-linejoin:miter;stroke-miterlimit:4;stroke-opacity:1;stroke-width:52.9;stroke:#ab00ab"/><path d="M7672.9 54198 1746.3 64756.9 3968.8 52877.1" style="fill:none;stroke-dasharray:none;stroke-linecap:butt;stroke-linejoin:miter;stroke-miterlimit:4;stroke-opacity:1;stroke-width:52.9;stroke:#ab00ab"/><path d="M14896 52877.1 17171.5 64756.9 11297.8 54198" style="fill:none;stroke-dasharray:none;stroke-linecap:butt;stroke-linejoin:miter;stroke-miterlimit:4;stroke-opacity:1;stroke-width:52.9;stroke:#ab00ab"/></svg>
