<svg xmlns:svg="http://www.w3.org/2000/svg" xmlns="http://www.w3.org/2000/svg" version="1.1" width="6646" height="19442" viewBox="0 0 6646 19442"><rect width="2614.9" height="2021.2" x="2021.4" y="8335.8" style="fill:none;opacity:1;stroke-dasharray:none;stroke-dashoffset:0;stroke-miterlimit:4;stroke-opacity:1;stroke-width:18.7;stroke:#ab00ab"/><path d="m5624.9 7225.2h582.2M6218.6 6816.8" style="fill:none;stroke-dasharray:none;stroke-linecap:butt;stroke-linejoin:miter;stroke-miterlimit:4;stroke-opacity:1;stroke-width:18.7;stroke:#ad2db3"/><path d="m6218.6 6816.8h-582.2" style="fill:none;stroke-dasharray:none;stroke-linecap:butt;stroke-linejoin:miter;stroke-miterlimit:4;stroke-opacity:1;stroke-width:18.7;stroke:#ad2db3"/><path d="M4348.8 8332.7 5914.7 7247.1 4636.5 8651.3" style="fill:none;stroke-dasharray:none;stroke-linecap:butt;stroke-linejoin:miter;stroke-miterlimit:4;stroke-opacity:1;stroke-width:18.7;stroke:#ad2db3"/><path d="m6218.6 11476.1h-582.2" style="fill:none;stroke-dasharray:none;stroke-linecap:butt;stroke-linejoin:miter;stroke-miterlimit:4;stroke-opacity:1;stroke-width:18.7;stroke:#ad2db3"/><path d="m6218.6 11884.5h-582.2" style="fill:none;stroke-dasharray:none;stroke-linecap:butt;stroke-linejoin:miter;stroke-miterlimit:4;stroke-opacity:1;stroke-width:18.7;stroke:#ad2db3"/><path d="M4326.1 10356.7 5935.3 11478 4638.6 10054.3" style="fill:none;stroke-dasharray:none;stroke-linecap:butt;stroke-linejoin:miter;stroke-miterlimit:4;stroke-opacity:1;stroke-width:18.7;stroke:#ad2db3"/><path d="M1040.4 7225.2H458.3" style="fill:none;stroke-dasharray:none;stroke-linecap:butt;stroke-linejoin:miter;stroke-miterlimit:4;stroke-opacity:1;stroke-width:18.7;stroke:#ad2db3"/><path d="M446.8 6816.8H1028.9" style="fill:none;stroke-dasharray:none;stroke-linecap:butt;stroke-linejoin:miter;stroke-miterlimit:4;stroke-opacity:1;stroke-width:18.7;stroke:#ad2db3"/><path d="M2316.5 8332.7 730.1 7223.2 2020.9 8641.8" style="fill:none;stroke-dasharray:none;stroke-linecap:butt;stroke-linejoin:miter;stroke-miterlimit:4;stroke-opacity:1;stroke-width:18.7;stroke:#ad2db3"/><path d="M446.8 11476.1H1028.9" style="fill:none;stroke-dasharray:none;stroke-linecap:butt;stroke-linejoin:miter;stroke-miterlimit:4;stroke-opacity:1;stroke-width:18.7;stroke:#ad2db3"/><path d="M446.8 11884.5H1028.9" style="fill:none;stroke-dasharray:none;stroke-linecap:butt;stroke-linejoin:miter;stroke-miterlimit:4;stroke-opacity:1;stroke-width:18.7;stroke:#ad2db3"/><path d="M2321.9 10358.7 730.1 11478 2020.9 10063.1" style="fill:none;stroke-dasharray:none;stroke-linecap:butt;stroke-linejoin:miter;stroke-miterlimit:4;stroke-opacity:1;stroke-width:18.7;stroke:#ad2db3"/><path d="M2462.4 8338 3047.3 753.5h566.3L4207.7 8338 2573.8 7001.2 4003.5 5747.9 2759.5 4559.7 3836.4 3492.1l-919.1-993.3 770.5-881.9-622-835.5" style="fill:none;stroke-dasharray:none;stroke-linecap:butt;stroke-linejoin:miter;stroke-miterlimit:4;stroke-opacity:1;stroke-width:18.7;stroke:#ad2db3"/><path d="M3613.6 753.5 3000.9 1589 3752.8 2489.5 2843 3501.4 3910.6 4569 2675.9 5738.7 4087 6973.4 2462.4 8338" style="fill:none;stroke-dasharray:none;stroke-linecap:butt;stroke-linejoin:miter;stroke-miterlimit:4;stroke-opacity:1;stroke-width:18.7;stroke:#ad2db3"/></svg>
