<svg xmlns:svg="http://www.w3.org/2000/svg" xmlns="http://www.w3.org/2000/svg" version="1.1" width="21518" height="57110" viewBox="0 0 21518 57110"><rect width="8026.7" height="6204.2" x="6727.5" y="24467.5" style="fill:none;opacity:1;stroke-dasharray:none;stroke-dashoffset:0;stroke-miterlimit:4;stroke-opacity:1;stroke-width:57.5;stroke:#ab00ab"/><path d="m17788.8 21058.2h1787" style="fill:none;stroke-dasharray:none;stroke-linecap:butt;stroke-linejoin:miter;stroke-miterlimit:4;stroke-opacity:1;stroke-width:57.5;stroke:#ad2db3"/><path d="M19611.1 19804.7H17824.1" style="fill:none;stroke-dasharray:none;stroke-linecap:butt;stroke-linejoin:miter;stroke-miterlimit:4;stroke-opacity:1;stroke-width:57.5;stroke:#ad2db3"/><path d="m13871.8 24457.7 4806.5-3332.4-3923.7 4310.3" style="fill:none;stroke-dasharray:none;stroke-linecap:butt;stroke-linejoin:miter;stroke-miterlimit:4;stroke-opacity:1;stroke-width:57.5;stroke:#ad2db3"/><path d="M19611.1 34106.8H17824.1" style="fill:none;stroke-dasharray:none;stroke-linecap:butt;stroke-linejoin:miter;stroke-miterlimit:4;stroke-opacity:1;stroke-width:57.5;stroke:#ad2db3"/><path d="M19611.1 35360.2H17824.1" style="fill:none;stroke-dasharray:none;stroke-linecap:butt;stroke-linejoin:miter;stroke-miterlimit:4;stroke-opacity:1;stroke-width:57.5;stroke:#ad2db3"/><path d="m13802 30670.7 4939.4 3442-3980.2-4370.1" style="fill:none;stroke-dasharray:none;stroke-linecap:butt;stroke-linejoin:miter;stroke-miterlimit:4;stroke-opacity:1;stroke-width:57.5;stroke:#ad2db3"/><path d="M3716.4 21058.2H1929.4" style="fill:none;stroke-dasharray:none;stroke-linecap:butt;stroke-linejoin:miter;stroke-miterlimit:4;stroke-opacity:1;stroke-width:57.5;stroke:#ad2db3"/><path d="M1894 19804.7H3681.1" style="fill:none;stroke-dasharray:none;stroke-linecap:butt;stroke-linejoin:miter;stroke-miterlimit:4;stroke-opacity:1;stroke-width:57.5;stroke:#ad2db3"/><path d="M7633.4 24457.7 2763.8 21052.3 6726 25406.6" style="fill:none;stroke-dasharray:none;stroke-linecap:butt;stroke-linejoin:miter;stroke-miterlimit:4;stroke-opacity:1;stroke-width:57.5;stroke:#ad2db3"/><path d="M1894 34106.8H3681.1" style="fill:none;stroke-dasharray:none;stroke-linecap:butt;stroke-linejoin:miter;stroke-miterlimit:4;stroke-opacity:1;stroke-width:57.5;stroke:#ad2db3"/><path d="M1894 35360.2H3681.1" style="fill:none;stroke-dasharray:none;stroke-linecap:butt;stroke-linejoin:miter;stroke-miterlimit:4;stroke-opacity:1;stroke-width:57.5;stroke:#ad2db3"/><path d="M7649.9 30676.9 2763.8 34112.7 6726 29769.3" style="fill:none;stroke-dasharray:none;stroke-linecap:butt;stroke-linejoin:miter;stroke-miterlimit:4;stroke-opacity:1;stroke-width:57.5;stroke:#ad2db3"/><path d="M8081.3 24474.1 9876.5 1192.8H11614.8L13438.5 24474.1 8423.2 20370.7 12811.6 16523.7 8993.1 12876.2 12298.7 9599.2 9477.6 6550.1 11842.7 3843 9933.5 1278.3" style="fill:none;stroke-dasharray:none;stroke-linecap:butt;stroke-linejoin:miter;stroke-miterlimit:4;stroke-opacity:1;stroke-width:57.5;stroke:#ad2db3"/><path d="m11614.8 1192.8-1880.7 2564.6 2308.2 2764.1-2792.6 3106.1 3277 3277-3790 3590.5 4331.4 3790-4986.8 4188.9" style="fill:none;stroke-dasharray:none;stroke-linecap:butt;stroke-linejoin:miter;stroke-miterlimit:4;stroke-opacity:1;stroke-width:57.5;stroke:#ad2db3"/></svg>
