<svg xmlns:svg="http://www.w3.org/2000/svg" xmlns="http://www.w3.org/2000/svg" version="1.1" width="10062" height="26714" viewBox="0 0 10062 26714"><rect width="3693.7" height="2855.1" x="3201.3" y="11491.9" style="fill:none;opacity:1;stroke-dasharray:none;stroke-dashoffset:0;stroke-miterlimit:4;stroke-opacity:1;stroke-width:26.5;stroke:#ab00ab"/><path d="m8291.5 9923h822.4M9130.1 9346.2" style="fill:none;stroke-dasharray:none;stroke-linecap:butt;stroke-linejoin:miter;stroke-miterlimit:4;stroke-opacity:1;stroke-width:26.5;stroke:#ad2db3"/><path d="m9130.1 9346.2h-822.4" style="fill:none;stroke-dasharray:none;stroke-linecap:butt;stroke-linejoin:miter;stroke-miterlimit:4;stroke-opacity:1;stroke-width:26.5;stroke:#ad2db3"/><path d="M6488.9 11487.4 8700.8 9953.9 6895.2 11937.5" style="fill:none;stroke-dasharray:none;stroke-linecap:butt;stroke-linejoin:miter;stroke-miterlimit:4;stroke-opacity:1;stroke-width:26.5;stroke:#ad2db3"/><path d="m9130.1 15927.8h-822.4" style="fill:none;stroke-dasharray:none;stroke-linecap:butt;stroke-linejoin:miter;stroke-miterlimit:4;stroke-opacity:1;stroke-width:26.5;stroke:#ad2db3"/><path d="m9130.1 16504.6h-822.4" style="fill:none;stroke-dasharray:none;stroke-linecap:butt;stroke-linejoin:miter;stroke-miterlimit:4;stroke-opacity:1;stroke-width:26.5;stroke:#ad2db3"/><path d="m6456.8 14346.5 2273 1584-1831.6-2011.1" style="fill:none;stroke-dasharray:none;stroke-linecap:butt;stroke-linejoin:miter;stroke-miterlimit:4;stroke-opacity:1;stroke-width:26.5;stroke:#ad2db3"/><path d="M1815.6 9923H993.3" style="fill:none;stroke-dasharray:none;stroke-linecap:butt;stroke-linejoin:miter;stroke-miterlimit:4;stroke-opacity:1;stroke-width:26.5;stroke:#ad2db3"/><path d="m977 9346.2h822.4" style="fill:none;stroke-dasharray:none;stroke-linecap:butt;stroke-linejoin:miter;stroke-miterlimit:4;stroke-opacity:1;stroke-width:26.5;stroke:#ad2db3"/><path d="M3618.2 11487.4 1377.2 9920.3 3200.6 11924.1" style="fill:none;stroke-dasharray:none;stroke-linecap:butt;stroke-linejoin:miter;stroke-miterlimit:4;stroke-opacity:1;stroke-width:26.5;stroke:#ad2db3"/><path d="m977 15927.8h822.4" style="fill:none;stroke-dasharray:none;stroke-linecap:butt;stroke-linejoin:miter;stroke-miterlimit:4;stroke-opacity:1;stroke-width:26.5;stroke:#ad2db3"/><path d="m977 16504.6h822.4" style="fill:none;stroke-dasharray:none;stroke-linecap:butt;stroke-linejoin:miter;stroke-miterlimit:4;stroke-opacity:1;stroke-width:26.5;stroke:#ad2db3"/><path d="m3625.8 14349.4-2248.5 1581.1 1823.3-1998.7" style="fill:none;stroke-dasharray:none;stroke-linecap:butt;stroke-linejoin:miter;stroke-miterlimit:4;stroke-opacity:1;stroke-width:26.5;stroke:#ad2db3"/><path d="M3824.2 11495 4650.4 781.4h799.9l839.3 10713.6-2308-1888.3 2019.5-1770.3-1757.2-1678.5 1521.1-1508-1298.2-1403.1 1088.4-1245.8-878.6-1180.2" style="fill:none;stroke-dasharray:none;stroke-linecap:butt;stroke-linejoin:miter;stroke-miterlimit:4;stroke-opacity:1;stroke-width:26.5;stroke:#ad2db3"/><path d="m5450.3 781.4-865.5 1180.2 1062.2 1272-1285.1 1429.4 1508 1508-1744.1 1652.3 1993.2 1744.1-2294.8 1927.7" style="fill:none;stroke-dasharray:none;stroke-linecap:butt;stroke-linejoin:miter;stroke-miterlimit:4;stroke-opacity:1;stroke-width:26.5;stroke:#ad2db3"/></svg>
