<svg xmlns:svg="http://www.w3.org/2000/svg" xmlns="http://www.w3.org/2000/svg" version="1.1" width="14580" height="38222" viewBox="0 0 14580 38222"><rect width="5404.8" height="4177.7" x="4549.2" y="16405.4" style="fill:none;opacity:1;stroke-dasharray:none;stroke-dashoffset:0;stroke-miterlimit:4;stroke-opacity:1;stroke-width:38.7;stroke:#ab00ab"/><path d="m11997.3 14109.6h1203.3" style="fill:none;stroke-dasharray:none;stroke-linecap:butt;stroke-linejoin:miter;stroke-miterlimit:4;stroke-opacity:1;stroke-width:38.7;stroke:#ad2db3"/><path d="M13224.4 13265.7H12021.1" style="fill:none;stroke-dasharray:none;stroke-linecap:butt;stroke-linejoin:miter;stroke-miterlimit:4;stroke-opacity:1;stroke-width:38.7;stroke:#ad2db3"/><path d="M9359.8 16398.8 12596.3 14154.9 9954.2 17057.3" style="fill:none;stroke-dasharray:none;stroke-linecap:butt;stroke-linejoin:miter;stroke-miterlimit:4;stroke-opacity:1;stroke-width:38.7;stroke:#ad2db3"/><path d="M13224.4 22896H12021.1" style="fill:none;stroke-dasharray:none;stroke-linecap:butt;stroke-linejoin:miter;stroke-miterlimit:4;stroke-opacity:1;stroke-width:38.7;stroke:#ad2db3"/><path d="M13224.4 23740H12021.1" style="fill:none;stroke-dasharray:none;stroke-linecap:butt;stroke-linejoin:miter;stroke-miterlimit:4;stroke-opacity:1;stroke-width:38.7;stroke:#ad2db3"/><path d="M9312.8 20582.3 12638.8 22900 9958.7 19957.3" style="fill:none;stroke-dasharray:none;stroke-linecap:butt;stroke-linejoin:miter;stroke-miterlimit:4;stroke-opacity:1;stroke-width:38.7;stroke:#ad2db3"/><path d="M2521.6 14109.6H1318.3" style="fill:none;stroke-dasharray:none;stroke-linecap:butt;stroke-linejoin:miter;stroke-miterlimit:4;stroke-opacity:1;stroke-width:38.7;stroke:#ad2db3"/><path d="M1294.5 13265.7H2497.8" style="fill:none;stroke-dasharray:none;stroke-linecap:butt;stroke-linejoin:miter;stroke-miterlimit:4;stroke-opacity:1;stroke-width:38.7;stroke:#ad2db3"/><path d="m5159.1 16398.8-3279-2293.1 2668 2932" style="fill:none;stroke-dasharray:none;stroke-linecap:butt;stroke-linejoin:miter;stroke-miterlimit:4;stroke-opacity:1;stroke-width:38.7;stroke:#ad2db3"/><path d="M1294.5 22896H2497.8" style="fill:none;stroke-dasharray:none;stroke-linecap:butt;stroke-linejoin:miter;stroke-miterlimit:4;stroke-opacity:1;stroke-width:38.7;stroke:#ad2db3"/><path d="M1294.5 23740H2497.8" style="fill:none;stroke-dasharray:none;stroke-linecap:butt;stroke-linejoin:miter;stroke-miterlimit:4;stroke-opacity:1;stroke-width:38.7;stroke:#ad2db3"/><path d="M5170.3 20586.5 1880.1 22900 4548.1 19975.4" style="fill:none;stroke-dasharray:none;stroke-linecap:butt;stroke-linejoin:miter;stroke-miterlimit:4;stroke-opacity:1;stroke-width:38.7;stroke:#ad2db3"/><path d="M5460.7 16409.8 6669.6 733.2H7840L9068.1 16409.8 5691 13646.7 8645.9 11056.4 6074.7 8600.3 8300.5 6393.7 6400.9 4340.5 7993.5 2517.7 6707.9 790.8" style="fill:none;stroke-dasharray:none;stroke-linecap:butt;stroke-linejoin:miter;stroke-miterlimit:4;stroke-opacity:1;stroke-width:38.7;stroke:#ad2db3"/><path d="M7840 733.2 6573.6 2460.1 8127.8 4321.4 6247.4 6412.9 8454 8619.5 5902 11037.2 8818.6 13589.2 5460.7 16409.8" style="fill:none;stroke-dasharray:none;stroke-linecap:butt;stroke-linejoin:miter;stroke-miterlimit:4;stroke-opacity:1;stroke-width:38.7;stroke:#ad2db3"/></svg>
