<svg xmlns:svg="http://www.w3.org/2000/svg" xmlns="http://www.w3.org/2000/svg" version="1.1" width="2440" height="2772" viewBox="0 0 2440 2772"><rect width="611.5" height="100.8" x="191.5" y="1975.7" style="fill:none;opacity:1;stroke-dasharray:none;stroke-dashoffset:0;stroke-miterlimit:4;stroke-opacity:1;stroke-width:13.2;stroke:#629dbf"/><rect y="1975.7" x="903.8" height="100.8" width="611.5" style="fill:none;opacity:1;stroke-dasharray:none;stroke-dashoffset:0;stroke-miterlimit:4;stroke-opacity:1;stroke-width:13.2;stroke:#629dbf"/><rect width="611.5" height="100.8" x="1575.7" y="1975.7" style="fill:none;opacity:1;stroke-dasharray:none;stroke-dashoffset:0;stroke-miterlimit:4;stroke-opacity:1;stroke-width:13.2;stroke:#629dbf"/><rect y="1052.9" x="-1615.3" height="100.8" width="611.5" transform="rotate(-60)" style="fill:none;opacity:1;stroke-dasharray:none;stroke-dashoffset:0;stroke-miterlimit:4;stroke-opacity:1;stroke-width:13.2;stroke:#629dbf"/><rect width="611.5" height="100.8" x="-885.6" y="1042.9" transform="rotate(-60)" style="fill:none;opacity:1;stroke-dasharray:none;stroke-dashoffset:0;stroke-miterlimit:4;stroke-opacity:1;stroke-width:13.2;stroke:#629dbf"/><rect y="1058.7" x="-126.9" height="100.8" width="611.5" transform="rotate(-60)" style="fill:none;opacity:1;stroke-dasharray:none;stroke-dashoffset:0;stroke-miterlimit:4;stroke-opacity:1;stroke-width:13.2;stroke:#629dbf"/><rect transform="matrix(-0.4630401,-0.88633733,-0.88633733,0.4630401,0,0)" width="611.5" height="100.8" x="-2763.9" y="-1124.5" style="fill:none;opacity:1;stroke-dasharray:none;stroke-dashoffset:0;stroke-miterlimit:4;stroke-opacity:1;stroke-width:13.2;stroke:#629dbf"/><rect transform="matrix(-0.4630401,-0.88633733,-0.88633733,0.4630401,0,0)" y="-1130.6" x="-2063.1" height="100.8" width="611.5" style="fill:none;opacity:1;stroke-dasharray:none;stroke-dashoffset:0;stroke-miterlimit:4;stroke-opacity:1;stroke-width:13.2;stroke:#629dbf"/><rect transform="matrix(-0.4630401,-0.88633733,-0.88633733,0.4630401,0,0)" width="611.5" height="100.8" x="-1325.8" y="-1133.9" style="fill:none;opacity:1;stroke-dasharray:none;stroke-dashoffset:0;stroke-miterlimit:4;stroke-opacity:1;stroke-width:13.2;stroke:#629dbf"/><text xml:space="preserve" x="942.6" y="1641.7" transform="scale(0.90982586,1.0991114)" style="fill-opacity:1;fill:#619ec0;font-family:sans-serif;font-size:1060.7;font-style:normal;font-weight:normal;letter-spacing:0;line-height:1.3;word-spacing:0"><tspan x="942.6" y="1641.7" style="fill-opacity:1;fill:#619ec0;stroke-width:26.5">H</tspan></text></svg>
