<svg xmlns:svg="http://www.w3.org/2000/svg" xmlns="http://www.w3.org/2000/svg" version="1.1" width="2070" height="2000" viewBox="0 0 2070 2000"><path d="m840.3 46.4c-39.3 0-70.9 31.4-70.9 70.3v192.1h-0.5V947.4H1224.8V308.8h-0.5V116.7c0-39-31.6-70.3-70.9-70.3z" style="fill-opacity:1;fill:#4fb7ff;opacity:1"/><rect width="320.7" height="289.9" x="834.2" y="125" style="fill-opacity:1;fill:#fff;opacity:1"/><path d="M786.4 105C765.9 116.5 728.6 92.2 733.9 159 725.3 423 747.1 753.3 698.5 888.3 668.2 933 591.5 976.4 505.7 900.6 420.7 848.3 474.9 751.1 474.9 751.1c49.7-69.4 90.9-112.2 132.6-165 72.8-65.7 97.1-188 121.8-309.9h41.6" style="fill:none;stroke-dasharray:none;stroke-linecap:butt;stroke-linejoin:miter;stroke-miterlimit:4;stroke-opacity:1;stroke-width:13.2;stroke:#4fb7ff"/><rect width="29.3" height="55.5" x="733.9" y="159" style="fill-opacity:1;fill:#fff;opacity:1;stroke-dasharray:none;stroke-dashoffset:0;stroke-miterlimit:4;stroke-opacity:1;stroke-width:13.2;stroke:#4fb7ff"/></svg>
