<svg xmlns:svg="http://www.w3.org/2000/svg" xmlns="http://www.w3.org/2000/svg" version="1.1" width="5008" height="5010" viewBox="0 0 5008 5010"><path d="m1930.5 1264.7a1361.7 1361.7 0 0 1 1137.1-0.8M1739.6 845.5" style="fill:none;opacity:1;stroke-dasharray:none;stroke-dashoffset:0;stroke-miterlimit:4;stroke-opacity:1;stroke-width:26.5;stroke:#f00"/><path d="m1739.6 845.5a1818.5 1818.5 0 0 1 1506.9-6.2" style="fill:none;opacity:1;stroke-dasharray:none;stroke-dashoffset:0;stroke-miterlimit:4;stroke-opacity:1;stroke-width:26.5;stroke:#f00"/><path d="M1554.4 438.7A2269.3 2269.3 0 0 1 3420 427.2" style="fill:none;opacity:1;stroke-dasharray:none;stroke-dashoffset:0;stroke-miterlimit:4;stroke-opacity:1;stroke-width:26.5;stroke:#f00"/><circle cx="2501" cy="2499.7" r="434.2" style="fill-opacity:1;fill:#f00;opacity:1"/><path d="m3738.5 3072.7a1361.7 1361.7 0 0 0 0.8-1137.1M4157.8 3263.6" style="fill:none;opacity:1;stroke-dasharray:none;stroke-dashoffset:0;stroke-miterlimit:4;stroke-opacity:1;stroke-width:26.5;stroke:#f00"/><path d="m4157.8 3263.6a1818.5 1818.5 0 0 0 6.2-1506.9" style="fill:none;opacity:1;stroke-dasharray:none;stroke-dashoffset:0;stroke-miterlimit:4;stroke-opacity:1;stroke-width:26.5;stroke:#f00"/><path d="M4564.5 3448.8A2269.3 2269.3 0 0 0 4576 1583.2" style="fill:none;opacity:1;stroke-dasharray:none;stroke-dashoffset:0;stroke-miterlimit:4;stroke-opacity:1;stroke-width:26.5;stroke:#f00"/><path d="m1253.1 1942.1a1361.7 1361.7 0 0 0-0.8 1137.1" style="fill:none;opacity:1;stroke-dasharray:none;stroke-dashoffset:0;stroke-miterlimit:4;stroke-opacity:1;stroke-width:26.5;stroke:#f00"/><path d="m833.9 1751.2a1818.5 1818.5 0 0 0-6.2 1506.9" style="fill:none;opacity:1;stroke-dasharray:none;stroke-dashoffset:0;stroke-miterlimit:4;stroke-opacity:1;stroke-width:26.5;stroke:#f00"/><path d="M427.1 1566A2269.3 2269.3 0 0 0 415.6 3431.6" style="fill:none;opacity:1;stroke-dasharray:none;stroke-dashoffset:0;stroke-miterlimit:4;stroke-opacity:1;stroke-width:26.5;stroke:#f00"/><path d="m3061.1 3750.2a1361.7 1361.7 0 0 1-1137.1 0.8" style="fill:none;opacity:1;stroke-dasharray:none;stroke-dashoffset:0;stroke-miterlimit:4;stroke-opacity:1;stroke-width:26.5;stroke:#f00"/><path d="m3252 4169.4a1818.5 1818.5 0 0 1-1506.9 6.2" style="fill:none;opacity:1;stroke-dasharray:none;stroke-dashoffset:0;stroke-miterlimit:4;stroke-opacity:1;stroke-width:26.5;stroke:#f00"/><path d="M3437.2 4576.2A2269.3 2269.3 0 0 1 1571.6 4587.6" style="fill:none;opacity:1;stroke-dasharray:none;stroke-dashoffset:0;stroke-miterlimit:4;stroke-opacity:1;stroke-width:26.5;stroke:#f00"/></svg>
