<svg xmlns:svg="http://www.w3.org/2000/svg" xmlns="http://www.w3.org/2000/svg" version="1.1" width="2186" height="2620" viewBox="0 0 2186 2620"><rect width="1828.3" height="2246.9" x="170.2" y="179.6" style="fill-opacity:1;fill:#fff;opacity:1;stroke-dasharray:none;stroke-dashoffset:0;stroke-miterlimit:4;stroke-opacity:1;stroke-width:132.3;stroke:#4fb7ff"/><ellipse cx="614.5" cy="620.5" rx="115.3" ry="134.4" style="fill-opacity:1;fill:#4fb7ff;stroke-width:2.7"/><path d="m598.5 1606.6v467.2c-0.6 84.9-109 84.9-110 0v-467.2H346.6L499.1 982.2h-24.8l-88.7 355.6c-22.4 78.6-113.7 46.8-92.3-37.2L392.7 916.1C404.1 871.9 451.9 794 534.6 792h74.5 85.2c80.4 1.9 128.3 80.5 141.9 124l99.4 384.5c20.2 83.6-70.4 117.9-92.3 37.2L754.6 982.2H726.3L882.4 1606.6H736.9v467.2c1.1 84.9-106.9 84.5-106.5 0v-467.2z" style="fill-opacity:1;fill:#4fb7ff;stroke-width:2.7"/><ellipse cx="1558.4" cy="620.5" rx="115.3" ry="134.4" style="fill-opacity:1;fill:#4fb7ff;stroke-width:2.7"/><path d="m1436 792c-88.7 0-145.5 89.5-145.5 177.8v413.5c-0.8 80.8 99 80.8 99.4 0v-380.4h24.8v1050.2c-1.5 109.7 131.4 106.5 131.3 0v-612h21.3v612c1.7 106.5 135.4 109.7 134.8 0V1002.9h24.8v380.4c-1.2 81.4 98.2 81.4 99.4 0V969.8C1824.9 881.5 1765.9 793.6 1677.3 792Z" style="fill-opacity:1;fill:#4fb7ff;stroke-width:2.7"/><rect x="1027.9" y="502.6" width="131.3" height="1625" style="fill-opacity:1;fill:#4fb7ff;stroke-width:2.7"/></svg>
